<?xml version="1.0" encoding="UTF-8"?>
<svg xmlns="http://www.w3.org/2000/svg" xmlns:xlink="http://www.w3.org/1999/xlink" width="64pt" height="64pt" viewBox="0 0 64 64" version="1.1">
<g id="surface1">
<path style=" stroke:none;fill-rule:nonzero;fill:rgb(0%,50.196078%,100%);fill-opacity:1;" d="M 63.910156 31.921875 C 63.910156 49.550781 49.617188 63.839844 31.988281 63.839844 C 14.359375 63.839844 0.0664062 49.550781 0.0664062 31.921875 C 0.0664062 14.292969 14.359375 0 31.988281 0 C 49.617188 0 63.910156 14.292969 63.910156 31.921875 Z M 63.910156 31.921875 "/>
<path style=" stroke:none;fill-rule:nonzero;fill:rgb(1.176471%,5.490196%,11.372549%);fill-opacity:1;" d="M 10.285156 27.65625 C 7.929688 27.65625 6.019531 29.566406 6.019531 31.921875 C 6.019531 34.273438 7.929688 36.183594 10.285156 36.183594 C 12.636719 36.183594 14.542969 34.273438 14.542969 31.921875 C 14.542969 29.566406 12.636719 27.65625 10.285156 27.65625 Z M 40.710938 47.027344 C 38.671875 48.207031 37.976562 50.808594 39.152344 52.847656 C 40.328125 54.886719 42.933594 55.585938 44.972656 54.40625 C 47.011719 53.230469 47.707031 50.625 46.53125 48.585938 C 45.355469 46.550781 42.75 45.851562 40.710938 47.027344 Z M 19.539062 31.921875 C 19.539062 27.710938 21.632812 23.988281 24.832031 21.734375 L 21.71875 16.515625 C 17.988281 19.007812 15.214844 22.816406 14.0625 27.277344 C 15.40625 28.375 16.269531 30.046875 16.269531 31.921875 C 16.269531 33.792969 15.40625 35.464844 14.0625 36.5625 C 15.214844 41.023438 17.988281 44.832031 21.71875 47.324219 L 24.832031 42.105469 C 21.632812 39.851562 19.539062 36.132812 19.539062 31.921875 Z M 31.988281 19.472656 C 38.492188 19.472656 43.828125 24.457031 44.386719 30.816406 L 50.460938 30.726562 C 50.160156 26.03125 48.109375 21.816406 44.960938 18.71875 C 43.339844 19.332031 41.46875 19.238281 39.847656 18.304688 C 38.226562 17.371094 37.210938 15.792969 36.933594 14.078125 C 35.359375 13.644531 33.703125 13.40625 31.988281 13.40625 C 29.042969 13.40625 26.257812 14.097656 23.785156 15.324219 L 26.746094 20.628906 C 28.339844 19.886719 30.113281 19.472656 31.988281 19.472656 Z M 31.988281 44.367188 C 30.113281 44.367188 28.339844 43.953125 26.746094 43.210938 L 23.785156 48.515625 C 26.257812 49.742188 29.042969 50.433594 31.988281 50.433594 C 33.703125 50.433594 35.359375 50.195312 36.933594 49.761719 C 37.210938 48.046875 38.230469 46.472656 39.847656 45.535156 C 41.46875 44.601562 43.339844 44.507812 44.960938 45.121094 C 48.109375 42.023438 50.160156 37.808594 50.460938 33.113281 L 44.386719 33.023438 C 43.828125 39.382812 38.492188 44.367188 31.988281 44.367188 Z M 40.710938 16.8125 C 42.75 17.988281 45.355469 17.292969 46.53125 15.253906 C 47.707031 13.214844 47.011719 10.609375 44.972656 9.429688 C 42.933594 8.253906 40.328125 8.953125 39.152344 10.992188 C 37.976562 13.03125 38.671875 15.636719 40.710938 16.8125 Z M 40.710938 16.8125 "/>
</g>
</svg>
